<?xml version="1.0" encoding="UTF-8" standalone="no"?>
<!-- Created with Inkscape (http://www.inkscape.org/) -->

<svg
   width="150"
   height="150"
   viewBox="0 0 39.687495 39.687498"
   version="1.1"
   id="svg1"
   xml:space="preserve"
   inkscape:version="1.4 (e7c3feb100, 2024-10-09)"
   sodipodi:docname="icon.svg"
   xmlns:inkscape="http://www.inkscape.org/namespaces/inkscape"
   xmlns:sodipodi="http://sodipodi.sourceforge.net/DTD/sodipodi-0.dtd"
   xmlns="http://www.w3.org/2000/svg"
   xmlns:svg="http://www.w3.org/2000/svg"><sodipodi:namedview
     id="namedview1"
     pagecolor="#000000"
     bordercolor="#000000"
     borderopacity="0.55686275"
     inkscape:showpageshadow="2"
     inkscape:pageopacity="0.0"
     inkscape:pagecheckerboard="0"
     inkscape:deskcolor="#d1d1d1"
     inkscape:document-units="px"
     inkscape:zoom="4.026501"
     inkscape:cx="71.029412"
     inkscape:cy="68.049157"
     inkscape:window-width="1920"
     inkscape:window-height="1008"
     inkscape:window-x="0"
     inkscape:window-y="0"
     inkscape:window-maximized="1"
     inkscape:current-layer="layer1" /><defs
     id="defs1" /><circle
     style="fill:#383c3f;stroke:none;stroke-width:0.79375;stroke-linecap:round;stroke-linejoin:round;fill-opacity:1"
     id="path4"
     cx="19.843748"
     cy="19.843748"
     r="19.843748" /><g
     inkscape:label="Layer 1"
     inkscape:groupmode="layer"
     id="layer1"><path
       style="font-size:25.4px;font-family:'Noto Sans';-inkscape-font-specification:'Noto Sans';fill:none;stroke:#ffffff;stroke-width:0.716662;stroke-linecap:round;stroke-linejoin:round"
       d="M 10.165941,29.842621 Q 8.0560869,29.819687 6.8406275,28.925293 5.6251681,28.030898 5.6251681,26.196242 v -3.371179 q 0,-1.169594 -0.7338622,-1.651191 -0.710929,-0.50453 -2.0639875,-0.50453 v -1.674124 q 1.3530585,-0.02293 2.0639875,-0.504529 0.7338622,-0.481597 0.7338622,-1.628257 v -3.394113 q 0,-1.834655 1.2613259,-2.72905 1.2613257,-0.8943948 3.279447,-0.8943948 v 1.6511908 q -1.1925263,0.02294 -1.8805221,0.527463 -0.6650626,0.504531 -0.6650626,1.628256 v 3.302381 q 0,2.362119 -2.4997184,2.797849 v 0.137599 q 2.4997184,0.435731 2.4997184,2.797851 v 3.371179 q 0,1.123727 0.6650626,1.605324 0.6650626,0.504531 1.8805221,0.527463 z M 29.521556,28.19143 q 1.192526,-0.04586 1.857589,-0.550396 0.687995,-0.481597 0.687995,-1.605324 v -3.325314 q 0,-2.362118 2.499719,-2.797849 V 19.774948 Q 32.06714,19.339217 32.06714,16.977098 v -3.348247 q 0,-1.123726 -0.665062,-1.605323 -0.665062,-0.50453 -1.880522,-0.527463 V 9.8448742 q 2.109854,0.022938 3.325313,0.9173278 1.215459,0.894395 1.215459,2.72905 v 3.348246 q 0,1.169594 0.71093,1.674123 0.733862,0.481597 2.086921,0.481597 v 1.674124 q -1.353059,0.02294 -2.086921,0.50453 -0.71093,0.481597 -0.71093,1.628257 v 3.417047 q 0,1.811722 -1.261325,2.706117 -1.261326,0.917328 -3.279447,0.917328 z"
       id="text1"
       aria-label="{   }" /><g
       id="g1"
       transform="matrix(0.20299097,0,0,0.20299097,6.8454249,6.7941697)"><g
         fill="#ffffff"
         transform="matrix(0.101,0,0,0.101,12.322,12.322)"
         id="g4"><path
           d="m 105,673 v 33 q 407,354 814,0 v -33 z"
           id="path1" /><path
           fill="#478cbf"
           d="m 105,673 152,14 q 12,1 15,14 l 4,67 132,10 8,-61 q 2,-11 15,-15 h 162 q 13,4 15,15 l 8,61 132,-10 4,-67 q 3,-13 15,-14 L 919,673 V 427 q 30,-39 56,-81 -35,-59 -83,-108 -43,20 -82,47 -40,-37 -88,-64 7,-51 8,-102 -59,-28 -123,-42 -26,43 -46,89 -49,-7 -98,0 -20,-46 -46,-89 -64,14 -123,42 1,51 8,102 -48,27 -88,64 -39,-27 -82,-47 -48,49 -83,108 26,42 56,81 z m 0,33 v 39 c 0,276 813,276 814,0 v -39 l -134,12 -5,69 q -2,10 -14,13 l -162,11 q -12,0 -16,-11 L 578,735 H 446 l -10,65 q -4,11 -16,11 L 258,800 q -12,-3 -14,-13 l -5,-69 z"
           id="path2" /><path
           d="m 483,600 c 0,34 58,34 58,0 v -86 c 0,-34 -58,-34 -58,0 z"
           id="path3" /><circle
           cx="725"
           cy="526"
           r="90"
           id="circle3" /><circle
           cx="299"
           cy="526"
           r="90"
           id="circle4" /></g><g
         fill="#414042"
         transform="matrix(0.101,0,0,0.101,12.322,12.322)"
         id="g6"><circle
           cx="307"
           cy="532"
           r="60"
           id="circle5" /><circle
           cx="717"
           cy="532"
           r="60"
           id="circle6" /></g></g></g></svg>
