<?xml version="1.0" encoding="UTF-8" standalone="no"?>
<!-- Created with Inkscape (http://www.inkscape.org/) -->

<svg
   width="423.74899"
   height="91.300003"
   viewBox="0 0 112.11691 24.156458"
   version="1.1"
   id="svg1"
   xml:space="preserve"
   inkscape:version="1.4 (e7c3feb100, 2024-10-09)"
   sodipodi:docname="icon-full.svg"
   xmlns:inkscape="http://www.inkscape.org/namespaces/inkscape"
   xmlns:sodipodi="http://sodipodi.sourceforge.net/DTD/sodipodi-0.dtd"
   xmlns="http://www.w3.org/2000/svg"
   xmlns:svg="http://www.w3.org/2000/svg"><sodipodi:namedview
     id="namedview1"
     pagecolor="#000000"
     bordercolor="#000000"
     borderopacity="0.25"
     inkscape:showpageshadow="2"
     inkscape:pageopacity="0.0"
     inkscape:pagecheckerboard="0"
     inkscape:deskcolor="#d1d1d1"
     inkscape:document-units="px"
     inkscape:zoom="2.0132505"
     inkscape:cx="267.9746"
     inkscape:cy="87.917524"
     inkscape:window-width="1920"
     inkscape:window-height="1008"
     inkscape:window-x="0"
     inkscape:window-y="0"
     inkscape:window-maximized="1"
     inkscape:current-layer="svg1" /><defs
     id="defs1" /><rect
     style="fill:#383c3f;stroke-width:0.79375;stroke-linecap:round;stroke-linejoin:round"
     id="rect1"
     width="112.11691"
     height="24.156458"
     x="0"
     y="0"
     ry="0" /><g
     inkscape:label="Layer 1"
     inkscape:groupmode="layer"
     id="layer1"><g
       id="text1"
       style="font-size:25.4px;font-family:Ubuntu;-inkscape-font-specification:Ubuntu;fill:none;stroke:#ffffff;stroke-width:0.79375;stroke-linecap:round;stroke-linejoin:round"
       aria-label="BSON{   }"><path
         style="font-family:sans-serif;-inkscape-font-specification:sans-serif"
         d="m 5.2694299,10.46546 v 6.784082 h 4.0183593 q 2.0215818,0 2.9889648,-0.830958 0.979785,-0.843359 0.979785,-2.567285 0,-1.736328 -0.979785,-2.554882 Q 11.309371,10.46546 9.2877892,10.46546 Z m 0,-7.6150394 v 5.5810546 h 3.7083008 q 1.8355473,0 2.7285153,-0.6821289 0.905371,-0.6945312 0.905371,-2.1083984 0,-1.4014648 -0.905371,-2.095996 Q 10.813278,2.8504206 8.9777307,2.8504206 Z M 2.7641565,0.7916316 h 6.3996093 q 2.8649412,0 4.4152342,1.190625 1.550293,1.190625 1.550293,3.3858398 0,1.699121 -0.79375,2.7037109 -0.79375,1.0045898 -2.331641,1.2526367 1.84795,0.396875 2.864942,1.661914 1.029394,1.252637 1.029394,3.137793 0,2.480469 -1.686718,3.832324 -1.686719,1.351856 -4.7997073,1.351856 H 2.7641565 Z M 30.843061,1.3993464 V 3.8426081 Q 29.416792,3.1604792 28.151753,2.8256159 26.886714,2.4907527 25.708491,2.4907527 q -2.046386,0 -3.162597,0.79375 -1.103809,0.7937499 -1.103809,2.2572265 0,1.227832 0.731738,1.8603515 0.744141,0.6201172 2.80293,1.0045898 l 1.513086,0.3100586 q 2.80293,0.5333008 4.12998,1.8851559 1.339453,1.339453 1.339453,3.59668 0,2.691309 -1.810742,4.080371 -1.79834,1.389062 -5.283398,1.389062 -1.314649,0 -2.80293,-0.297656 -1.475879,-0.297656 -3.063379,-0.880566 v -2.579688 q 1.525489,0.855762 2.988965,1.289844 1.463477,0.434082 2.877344,0.434082 2.145605,0 3.311426,-0.843359 1.16582,-0.84336 1.16582,-2.406055 0,-1.364258 -0.843359,-2.133203 -0.830957,-0.768945 -2.740918,-1.153418 l -1.525489,-0.297656 q -2.802929,-0.558106 -4.055566,-1.7487306 -1.252637,-1.190625 -1.252637,-3.3114257 0,-2.455664 1.723926,-3.8695312 1.736328,-1.41386718 4.774902,-1.41386718 1.302246,0 2.654102,0.23564453 1.351855,0.23564452 2.765722,0.70693355 z m 12.538768,1.0914063 q -2.728515,0 -4.34082,2.0339843 -1.599902,2.0339844 -1.599902,5.543848 0,3.49746 1.599902,5.531445 1.612305,2.033984 4.34082,2.033984 2.728516,0 4.316016,-2.033984 1.599902,-2.033985 1.599902,-5.531445 0,-3.5098636 -1.599902,-5.543848 -1.5875,-2.0339843 -4.316016,-2.0339843 z m 0,-2.03398438 q 3.894336,0 6.225977,2.61689448 2.33164,2.6044922 2.33164,6.9949222 0,4.378027 -2.33164,6.994921 -2.331641,2.604492 -6.225977,2.604492 -3.906738,0 -6.250781,-2.604492 -2.331641,-2.604492 -2.331641,-6.994921 0,-4.39043 2.331641,-6.9949222 2.344043,-2.61689448 6.250781,-2.61689448 z m 12.47676,0.33486328 h 3.373438 L 67.442378,16.282159 V 0.7916316 h 2.43086 V 19.308331 H 66.4998 L 58.289449,3.8178034 V 19.308331 h -2.43086 z"
         id="path5" /><path
         style="font-family:'Noto Sans';-inkscape-font-specification:'Noto Sans'"
         d="m 81.205311,23.32153 q -2.3368,-0.0254 -3.683,-1.016 -1.3462,-0.990599 -1.3462,-3.022599 v -3.7338 q 0,-1.2954 -0.8128,-1.8288 -0.7874,-0.5588 -2.286,-0.5588 v -1.8542 q 1.4986,-0.0254 2.286,-0.5588 0.8128,-0.5334 0.8128,-1.8034003 v -3.7592 q 0,-2.0319999 1.397,-3.0225999 1.397,-0.9906 3.6322,-0.9906 v 1.8288 q -1.3208,0.0254 -2.0828,0.5842 -0.7366,0.5588 -0.7366,1.8033999 v 3.6576 q 0,2.6162003 -2.7686,3.0988003 v 0.1524 q 2.7686,0.4826 2.7686,3.0988 v 3.7338 q 0,1.2446 0.7366,1.778 0.7366,0.5588 2.0828,0.5842 z m 21.437599,-1.828799 q 1.3208,-0.0508 2.0574,-0.6096 0.762,-0.5334 0.762,-1.778 v -3.683 q 0,-2.6162 2.7686,-3.0988 v -0.1524 q -2.7686,-0.4826 -2.7686,-3.0988003 v -3.7084 q 0,-1.2445999 -0.7366,-1.7779999 -0.7366,-0.5588 -2.0828,-0.5842 v -1.8288 q 2.3368,0.0254 3.683,1.016 1.3462,0.9906 1.3462,3.0225999 v 3.7084 q 0,1.2954003 0.7874,1.8542003 0.8128,0.5334 2.3114,0.5334 v 1.8542 q -1.4986,0.0254 -2.3114,0.5588 -0.7874,0.5334 -0.7874,1.8034 v 3.7846 q 0,2.0066 -1.397,2.997199 -1.397,1.016 -3.6322,1.016 z"
         id="path6" /></g><g
       id="g1"
       transform="matrix(0.26458332,0,0,0.26458332,74.979948,-4.7666463)"><g
         fill="#ffffff"
         transform="matrix(0.101,0,0,0.101,12.322,12.322)"
         id="g4"><path
           d="m 105,673 v 33 q 407,354 814,0 v -33 z"
           id="path1" /><path
           fill="#478cbf"
           d="m 105,673 152,14 q 12,1 15,14 l 4,67 132,10 8,-61 q 2,-11 15,-15 h 162 q 13,4 15,15 l 8,61 132,-10 4,-67 q 3,-13 15,-14 L 919,673 V 427 q 30,-39 56,-81 -35,-59 -83,-108 -43,20 -82,47 -40,-37 -88,-64 7,-51 8,-102 -59,-28 -123,-42 -26,43 -46,89 -49,-7 -98,0 -20,-46 -46,-89 -64,14 -123,42 1,51 8,102 -48,27 -88,64 -39,-27 -82,-47 -48,49 -83,108 26,42 56,81 z m 0,33 v 39 c 0,276 813,276 814,0 v -39 l -134,12 -5,69 q -2,10 -14,13 l -162,11 q -12,0 -16,-11 L 578,735 H 446 l -10,65 q -4,11 -16,11 L 258,800 q -12,-3 -14,-13 l -5,-69 z"
           id="path2" /><path
           d="m 483,600 c 0,34 58,34 58,0 v -86 c 0,-34 -58,-34 -58,0 z"
           id="path3" /><circle
           cx="725"
           cy="526"
           r="90"
           id="circle3" /><circle
           cx="299"
           cy="526"
           r="90"
           id="circle4" /></g><g
         fill="#414042"
         transform="matrix(0.101,0,0,0.101,12.322,12.322)"
         id="g6"><circle
           cx="307"
           cy="532"
           r="60"
           id="circle5" /><circle
           cx="717"
           cy="532"
           r="60"
           id="circle6" /></g></g><path
       style="opacity:1;fill:none;fill-opacity:1;stroke:#ffffff;stroke-width:0.79375;stroke-linecap:round;stroke-linejoin:round;stroke-dasharray:none;stroke-opacity:1"
       d="M 1.4552082,22.089884 H 71.311877"
       id="path4"
       sodipodi:nodetypes="cc" /></g></svg>
